<svg width="24" height="24" viewBox="0 0 24 24" fill="none" xmlns="http://www.w3.org/2000/svg">
<path d="M10.625 4C10.3266 4 10.0405 4.11853 9.8295 4.3295C9.61853 4.54048 9.5 4.82663 9.5 5.125C9.5 5.42337 9.61853 5.70952 9.8295 5.9205C10.0405 6.13147 10.3266 6.25 10.625 6.25H17.75C18.3467 6.25 18.919 6.48705 19.341 6.90901C19.7629 7.33097 20 7.90326 20 8.5V19C20 19.5967 19.7629 20.169 19.341 20.591C18.919 21.0129 18.3467 21.25 17.75 21.25H10.625C10.3266 21.25 10.0405 21.3685 9.8295 21.5795C9.61853 21.7905 9.5 22.0766 9.5 22.375C9.5 22.6734 9.61853 22.9595 9.8295 23.1705C10.0405 23.3815 10.3266 23.5 10.625 23.5H17.75C18.9435 23.5 20.0881 23.0259 20.932 22.182C21.7759 21.3381 22.25 20.1935 22.25 19V8.5C22.25 7.30653 21.7759 6.16193 20.932 5.31802C20.0881 4.47411 18.9435 4 17.75 4H10.625ZM15.17 12.955L11.42 9.205C11.2067 9.00628 10.9247 8.8981 10.6332 8.90324C10.3418 8.90838 10.0637 9.02645 9.85757 9.23257C9.65145 9.43869 9.53338 9.71676 9.52824 10.0082C9.5231 10.2997 9.63128 10.5817 9.83 10.795L11.66 12.625H3.125C2.82663 12.625 2.54048 12.7435 2.3295 12.9545C2.11853 13.1655 2 13.4516 2 13.75C2 14.0484 2.11853 14.3345 2.3295 14.5455C2.54048 14.7565 2.82663 14.875 3.125 14.875H11.66L9.83 16.705C9.71947 16.808 9.63082 16.9322 9.56933 17.0702C9.50784 17.2082 9.47478 17.3572 9.47211 17.5082C9.46945 17.6593 9.49723 17.8093 9.55382 17.9494C9.6104 18.0895 9.69461 18.2167 9.80144 18.3236C9.90827 18.4304 10.0355 18.5146 10.1756 18.5712C10.3157 18.6278 10.4657 18.6556 10.6168 18.6529C10.7678 18.6502 10.9168 18.6172 11.0548 18.5557C11.1928 18.4942 11.317 18.4055 11.42 18.295L15.17 14.545C15.3807 14.3341 15.499 14.0481 15.499 13.75C15.499 13.4519 15.3807 13.1659 15.17 12.955Z" fill="black"/>
</svg>
